# xmcd
#
# Track frame offsets: 
#        150
#        16031
#        35117
#        44849
#        60530
#        80486
#        99840
#        115701
#        131089
#        149531
#        163391
#        182580
#        195920
#        209180
#        223057
#        232585
#        251430
#        264124
#        277462
#        297552
#
# Disc length: 4211 seconds
#
# Revision: 0
# Processed by: cddbd v1.5.2PL0 Copyright (c) Steve Scherf et al.
# Submitted via: ExactAudioCopy v0.99pb3
#
DISCID=32107114
DTITLE=Various Artist - Bloodshot Records Sampler 11
DYEAR=2011
DGENRE=Alt. Rock
TTITLE0=Ha Ha Tonka - Usual Suspects
TTITLE1=Lydia Loveless - Can't Change Me
TTITLE2=Dex Romweber Duo - Jungle Drums
TTITLE3=JC Brooks and The Uptown Sound - Everything Will Be Fine
TTITLE4=Maggie Bjorklund with Rachel Flotard - Summer Romance
TTITLE5=Scott H Biram - I Want My Mojo Back
TTITLE6=The Mekons - Space In Your Face
TTITLE7=The Bottle Rockets - Smokin' 100's Alone
TTITLE8=Exene Cervenka - Alone In Arizona
TTITLE9=Eddie Spaghetti - Never Thought I Would
TTITLE10=Alejandro Escovedo - Castanets
TTITLE11=Justin Townes Earle - Slippin' And Slidin'
TTITLE12=Whitey Morgan and The 78s - I Ain't Drunk
TTITLE13=Deadstring Brothers - Smile
TTITLE14=Wayne Hancock - Your Love And His Blood
TTITLE15=Andre Williams - Tricks
TTITLE16=Ryan Adams - Shakedown On 9th Street
TTITLE17=Old 97s - The Other Shoe
TTITLE18=Southeast Engine - 1933 (Great Depression)
TTITLE19=The Black Swans - Joe Tex
EXTD=
EXTT0=
EXTT1=
EXTT2=
EXTT3=
EXTT4=
EXTT5=
EXTT6=
EXTT7=
EXTT8=
EXTT9=
EXTT10=
EXTT11=
EXTT12=
EXTT13=
EXTT14=
EXTT15=
EXTT16=
EXTT17=
EXTT18=
EXTT19=
PLAYORDER=
